# xmcd
#
# Track frame offsets:
#	150
#	13310
#	25869
#	39396
#	52606
#	65946
#	79830
#	93677
#	105436
#	118302
#	129883
#	141157
#	154298
#	165693
#	178938
#	190955
#	203695
#	216734
#	229235
#	240878
#	253723
#	265575
#	278621
#	291547
#	304551
#	316720
#
# Disc length: 4377 seconds
#
# Revision: 1
# Processed by: cddbd v1.5.2PL0 Copyright (c) Steve Scherf et al.
# Submitted via: EZCDAudioConverter 2.2.2.1
#
DISCID=7811171a
DTITLE=Patsy Montana - The Pride Of The Prarie
DYEAR=1900
DGENRE=Country
TTITLE0=My Million Dollar Smile (1939)
TTITLE1=Pride Of The Prairie (1937)
TTITLE2=My Song Of The West (1939)
TTITLE3=I Wanna Be A Western Girl (1939)
TTITLE4=Montana (1939)
TTITLE5=There's A Ranch In The Sky (1937)
TTITLE6=Ridin' The Sunset Trail (1937)
TTITLE7=My Dear Old Arizona Home (1938)
TTITLE8=With A Banjo On My Knee (1937)
TTITLE9=He's A Wild And Reckless Cowboy (1937)
TTITLE10=Singing In The Saddle (1939)
TTITLE11=Old Nevada Moon (1939)
TTITLE12=The Moon Hangs Low On The Ohio (1939)
TTITLE13=Cowboy Rhythm (1938)
TTITLE14=When The Flowers Of Montana Are Blooming (1932)
TTITLE15=Chuck Wagon Blues (1936)
TTITLE16=Little Sweetheart Of The Ozarks (1938)
TTITLE17=I Love My Daddy (1932)
TTITLE18=I'd Love To Be A Cowgirl (1939)
TTITLE19=Waltz Of The Hills (1938)
TTITLE20=Strawberry Roan (1938)
TTITLE21=You're Gonna Be Sorry (ca. 1945)
TTITLE22=Shy Anne From Old Cheyenne (1941)
TTITLE23=Going Back To Old Montana (1936)
TTITLE24=High Falutin' Newton (1938)
TTITLE25=My Baby's Lullabye (1936)
EXTD=
EXTT0=
EXTT1=
EXTT2=
EXTT3=
EXTT4=
EXTT5=
EXTT6=
EXTT7=
EXTT8=
EXTT9=
EXTT10=
EXTT11=
EXTT12=
EXTT13=
EXTT14=
EXTT15=
EXTT16=
EXTT17=
EXTT18=
EXTT19=
EXTT20=
EXTT21=
EXTT22=
EXTT23=
EXTT24=
EXTT25=
PLAYORDER=
